HIERARCHY
ROOT Hips
{
  OFFSET 150.432 88.1888 27.0678
  CHANNELS 6 Xposition Yposition Zposition Zrotation Xrotation Yrotation
  JOINT RightUpLeg
  {
    OFFSET -9.25679 -1.50405 0.000749919
    CHANNELS 3 Zrotation Xrotation Yrotation
    JOINT RightLeg
    {
      OFFSET 0.0460649 -41.9017 0.109432
      CHANNELS 3 Zrotation Xrotation Yrotation
      JOINT RightFoot
      {
        OFFSET 1.7988 -41.6468 0.413135
        CHANNELS 3 Zrotation Xrotation Yrotation
        End Site
        {
          OFFSET 0 -7.69 17.5
        }
      }
    }
  }
  JOINT LeftUpLeg
  {
    OFFSET 9.37007 -1.70178 -0.0772456
    CHANNELS 3 Zrotation Xrotation Yrotation
    JOINT LeftLeg
    {
      OFFSET 0.225295 -41.8622 -0.102498
      CHANNELS 3 Zrotation Xrotation Yrotation
      JOINT LeftFoot
      {
        OFFSET -2.07126 -41.2817 -1.22305
        CHANNELS 3 Zrotation Xrotation Yrotation
        End Site
        {
          OFFSET 0 -7.69 17.5
        }
      }
    }
  }
  JOINT Spine
  {
    OFFSET 0.0614897 14.2979 0.0172263
    CHANNELS 3 Zrotation Xrotation Yrotation
    JOINT Spine1
    {
      OFFSET 0.0253415 9.71429 0.00919728
      CHANNELS 3 Zrotation Xrotation Yrotation
      JOINT Spine2
      {
        OFFSET -0.0163533 10.1275 0.00641818
        CHANNELS 3 Zrotation Xrotation Yrotation
        JOINT Spine3
        {
          OFFSET 0.00964153 9.71178 0.018187
          CHANNELS 3 Zrotation Xrotation Yrotation
          JOINT Neck
          {
            OFFSET -0.0402277 10.3749 0.0917408
            CHANNELS 3 Zrotation Xrotation Yrotation
            JOINT Head
            {
              OFFSET 0.0121048 9.49481 0.108971
              CHANNELS 3 Zrotation Xrotation Yrotation
              End Site
              {
                OFFSET 0 15.95 0
              }
            }
          }
          JOINT RightShoulder
          {
            OFFSET -3.18208 6.946 0.015457
            CHANNELS 3 Zrotation Xrotation Yrotation
            JOINT RightArm
            {
              OFFSET -12.7708 0.0386499 -0.00729584
              CHANNELS 3 Zrotation Xrotation Yrotation
              JOINT RightForeArm
              {
                OFFSET -26.422 0.00272702 0.0331834
                CHANNELS 3 Zrotation Xrotation Yrotation
                JOINT RightHand
                {
                  OFFSET -25.9963 -0.0318335 0.00677283
                  CHANNELS 3 Zrotation Xrotation Yrotation
                  JOINT RightHandThumb1
                  {
                    OFFSET -2.48905 0.190105 3.12053
                    CHANNELS 3 Zrotation Xrotation Yrotation
                    JOINT RightHandThumb2
                    {
                      OFFSET -3.68274 0 0
                      CHANNELS 3 Zrotation Xrotation Yrotation
                      JOINT RightHandThumb3
                      {
                        OFFSET -2.55832 0 0
                        CHANNELS 3 Zrotation Xrotation Yrotation
                        End Site
                        {
                          OFFSET -2.194 0 0
                        }
                      }
                    }
                  }
                  JOINT RightInHandIndex
                  {
                    OFFSET -3.22368 0.508421 1.97842
                    CHANNELS 3 Zrotation Xrotation Yrotation
                    JOINT RightHandIndex1
                    {
                      OFFSET -5.21684 -0.091368 0.999158
                      CHANNELS 3 Zrotation Xrotation Yrotation
                      JOINT RightHandIndex2
                      {
                        OFFSET -3.61937 0 0
                        CHANNELS 3 Zrotation Xrotation Yrotation
                        JOINT RightHandIndex3
                        {
                          OFFSET -2.0521 0 0
                          CHANNELS 3 Zrotation Xrotation Yrotation
                          End Site
                          {
                            OFFSET -1.805 0 0
                          }
                        }
                      }
                    }
                  }
                  JOINT RightInHandMiddle
                  {
                    OFFSET -3.38211 0.517263 0.756737
                    CHANNELS 3 Zrotation Xrotation Yrotation
                    JOINT RightHandMiddle1
                    {
                      OFFSET -5.17411 -0.084 0.313895
                      CHANNELS 3 Zrotation Xrotation Yrotation
                      JOINT RightHandMiddle2
                      {
                        OFFSET -3.94947 0 0
                        CHANNELS 3 Zrotation Xrotation Yrotation
                        JOINT RightHandMiddle3
                        {
                          OFFSET -2.47579 0 0
                          CHANNELS 3 Zrotation Xrotation Yrotation
                          End Site
                          {
                            OFFSET -1.975 0 0
                          }
                        }
                      }
                    }
                  }
                  JOINT RightInHandRing
                  {
                    OFFSET -3.36516 0.537895 -0.128947
                    CHANNELS 3 Zrotation Xrotation Yrotation
                    JOINT RightHandRing1
                    {
                      OFFSET -4.63474 -0.022105 -0.478947
                      CHANNELS 3 Zrotation Xrotation Yrotation
                      JOINT RightHandRing2
                      {
                        OFFSET -3.44238 0 0
                        CHANNELS 3 Zrotation Xrotation Yrotation
                        JOINT RightHandRing3
                        {
                          OFFSET -2.3881 0 0
                          CHANNELS 3 Zrotation Xrotation Yrotation
                          End Site
                          {
                            OFFSET -1.857 0 0
                          }
                        }
                      }
                    }
                  }
                  JOINT RightInHandPinky
                  {
                    OFFSET -3.16105 0.469368 -1.20179
                    CHANNELS 3 Zrotation Xrotation Yrotation
                    JOINT RightHandPinky1
                    {
                      OFFSET -4.14105 -0.022105 -1.09053
                      CHANNELS 3 Zrotation Xrotation Yrotation
                      JOINT RightHandPinky2
                      {
                        OFFSET -2.75653 0 0
                        CHANNELS 3 Zrotation Xrotation Yrotation
                        JOINT RightHandPinky3
                        {
                          OFFSET -1.74189 0 0
                          CHANNELS 3 Zrotation Xrotation Yrotation
                          End Site
                          {
                            OFFSET -1.645 0 0
                          }
                        }
                      }
                    }
                  }
                }
              }
            }
          }
          JOINT LeftShoulder
          {
            OFFSET 3.18966 6.92856 0.062398
            CHANNELS 3 Zrotation Xrotation Yrotation
            JOINT LeftArm
            {
              OFFSET 12.7601 -0.0509086 0.00275124
              CHANNELS 3 Zrotation Xrotation Yrotation
              JOINT LeftForeArm
              {
                OFFSET 26.4828 -0.0571091 -0.0285564
                CHANNELS 3 Zrotation Xrotation Yrotation
                JOINT LeftHand
                {
                  OFFSET 25.9994 -0.0171136 -0.0547064
                  CHANNELS 3 Zrotation Xrotation Yrotation
                  JOINT LeftHandThumb1
                  {
                    OFFSET 2.48905 0.190105 3.12053
                    CHANNELS 3 Zrotation Xrotation Yrotation
                    JOINT LeftHandThumb2
                    {
                      OFFSET 3.68274 0 0
                      CHANNELS 3 Zrotation Xrotation Yrotation
                      JOINT LeftHandThumb3
                      {
                        OFFSET 2.55832 0 0
                        CHANNELS 3 Zrotation Xrotation Yrotation
                        End Site
                        {
                          OFFSET 2.194 0 0
                        }
                      }
                    }
                  }
                  JOINT LeftInHandIndex
                  {
                    OFFSET 3.22368 0.508421 1.97842
                    CHANNELS 3 Zrotation Xrotation Yrotation
                    JOINT LeftHandIndex1
                    {
                      OFFSET 5.21684 -0.091368 0.999158
                      CHANNELS 3 Zrotation Xrotation Yrotation
                      JOINT LeftHandIndex2
                      {
                        OFFSET 3.61937 0 0
                        CHANNELS 3 Zrotation Xrotation Yrotation
                        JOINT LeftHandIndex3
                        {
                          OFFSET 2.0521 0 0
                          CHANNELS 3 Zrotation Xrotation Yrotation
                          End Site
                          {
                            OFFSET 1.805 0 0
                          }
                        }
                      }
                    }
                  }
                  JOINT LeftInHandMiddle
                  {
                    OFFSET 3.38211 0.517263 0.756737
                    CHANNELS 3 Zrotation Xrotation Yrotation
                    JOINT LeftHandMiddle1
                    {
                      OFFSET 5.17411 -0.084 0.313895
                      CHANNELS 3 Zrotation Xrotation Yrotation
                      JOINT LeftHandMiddle2
                      {
                        OFFSET 3.94947 0 0
                        CHANNELS 3 Zrotation Xrotation Yrotation
                        JOINT LeftHandMiddle3
                        {
                          OFFSET 2.47579 0 0
                          CHANNELS 3 Zrotation Xrotation Yrotation
                          End Site
                          {
                            OFFSET 1.975 0 0
                          }
                        }
                      }
                    }
                  }
                  JOINT LeftInHandRing
                  {
                    OFFSET 3.36516 0.537895 -0.128947
                    CHANNELS 3 Zrotation Xrotation Yrotation
                    JOINT LeftHandRing1
                    {
                      OFFSET 4.63474 -0.022105 -0.478947
                      CHANNELS 3 Zrotation Xrotation Yrotation
                      JOINT LeftHandRing2
                      {
                        OFFSET 3.44238 0 0
                        CHANNELS 3 Zrotation Xrotation Yrotation
                        JOINT LeftHandRing3
                        {
                          OFFSET 2.3881 0 0
                          CHANNELS 3 Zrotation Xrotation Yrotation
                          End Site
                          {
                            OFFSET 1.857 0 0
                          }
                        }
                      }
                    }
                  }
                  JOINT LeftInHandPinky
                  {
                    OFFSET 3.16105 0.469368 -1.20179
                    CHANNELS 3 Zrotation Xrotation Yrotation
                    JOINT LeftHandPinky1
                    {
                      OFFSET 4.14105 -0.022105 -1.09053
                      CHANNELS 3 Zrotation Xrotation Yrotation
                      JOINT LeftHandPinky2
                      {
                        OFFSET 2.75653 0 0
                        CHANNELS 3 Zrotation Xrotation Yrotation
                        JOINT LeftHandPinky3
                        {
                          OFFSET 1.74189 0 0
                          CHANNELS 3 Zrotation Xrotation Yrotation
                          End Site
                          {
                            OFFSET 1.645 0 0
                          }
                        }
                      }
                    }
                  }
                }
              }
            }
          }
        }
      }
    }
  }
}
MOTION
Frames: 3
Frame Time: 0.00833333
7.504566237166012570e+02 -5.166441805519639274e-02 1.985764408799475689e+00 7.749877252826173901e-01 -1.134664126464912215e+00 4.652628171661234546e+00 -6.314729567862737980e+00 -5.672150210189300878e+00 -6.737133599847012988e+00 1.889177415373038293e+00 -6.148096254992694298e-01 -1.638831145692169144e+00 8.581472294537562107e-02 2.109078292337308369e+00 6.160527781688225346e-01 -3.921099104765417565e-01 -5.146003001341156846e+00 -9.738605456367324109e-01 2.612831231885082706e-01 -1.530771287416392568e+00 -5.377468117654178315e-01 1.275216170424403828e+00 1.998059246270736278e+00 3.296694143630443108e-01 4.446088058884889449e-02 3.623286652859285972e+00 3.075078857984020253e+00 8.117608973592727040e-02 7.973844563232401761e-01 5.744700566638518691e-01 6.216894937862349479e-02 2.128395684095696794e+00 1.035554399621650301e+00 -1.179850184122696044e-01 -9.423707140547826766e-02 -4.335031526220562426e-01 1.102221401879096840e-01 -8.415302100100283123e-02 -3.752631601571654762e+00 -1.866553489069572080e+00 -2.985356546375471432e+00 -6.115615724932958130e+00 2.556090128414671980e+00 2.591195490296589465e+00 1.371496684967216106e+00 -2.625088070583387889e-01 4.665897655528785215e+00 2.699095801399926842e+01 -2.467910326165476675e+00 -1.364001671968487273e+01 6.112966075114699294e+01 5.201262891306347669e+00 -5.680080017236999623e+00 -3.068098869261532968e-01 1.065814103640150279e-14 0.000000000000000000e+00 -1.421085471520200372e-14 2.365197058513862961e-15 -2.128516225642116223e-15 0.000000000000000000e+00 3.504817824587777993e-15 1.899316730332733704e-15 0.000000000000000000e+00 1.952168197360376606e-15 2.341387593660214424e-15 1.313571397349763126e-15 -1.065814103640150279e-14 -3.330669073875469621e-16 0.000000000000000000e+00 0.000000000000000000e+00 -5.078669002536241779e-15 -1.007385001942320482e-14 0.000000000000000000e+00 -4.989741123740221769e-15 -6.694121484690077581e-15 1.952168197360376606e-15 2.341387593660214424e-15 1.313571397349763126e-15 0.000000000000000000e+00 6.159261728476089060e-15 1.734506050205974913e-15 0.000000000000000000e+00 -1.574630281637919055e-15 3.138103841456058506e-15 0.000000000000000000e+00 -5.181451938064663343e-15 -7.858028972333132450e-15 1.952168197360376606e-15 2.341387593660214424e-15 1.313571397349763126e-15 7.105427357601001859e-15 -4.440892098500626162e-16 -1.332267629550187849e-15 0.000000000000000000e+00 -2.015035225932366313e-16 -3.392621184099083847e-15 0.000000000000000000e+00 -8.163647793836876699e-16 -1.303016996744129818e-15 1.952168197360376606e-15 2.341387593660214424e-15 1.313571397349763126e-15 -1.065814103640150279e-14 -2.220446049250313081e-15 3.552713678800500929e-15 0.000000000000000000e+00 5.213633055024854363e-15 1.065125956994136192e-14 0.000000000000000000e+00 -1.671725463851378762e-15 6.215946495463989250e-15 -5.977099131679159072e+00 2.599339856160518991e+00 -4.649519635002597795e+00 -4.963767284974966998e-01 7.034113969291432511e+00 5.571215265425436769e+00 3.287080906604704467e+01 -2.090330638368545380e+01 7.498102926181050520e+01 1.663675683034125896e+01 3.201277577201473434e+01 2.692566340350133203e+01 -1.065814103640150279e-14 0.000000000000000000e+00 1.421085471520200372e-14 -1.793399233727992214e-15 -4.356965679784163184e-15 0.000000000000000000e+00 -1.224283220257172066e-15 1.680357725217111057e-15 0.000000000000000000e+00 2.431999913011504207e-15 7.554858582308652635e-16 2.163417990702391027e-15 1.065814103640150279e-14 -3.330669073875469621e-16 0.000000000000000000e+00 0.000000000000000000e+00 -1.483872354749883525e-15 -3.259654051406846734e-15 0.000000000000000000e+00 -1.265362251182792704e-15 3.255027544762634918e-15 2.431999913011504207e-15 7.554858582308652635e-16 2.163417990702391027e-15 0.000000000000000000e+00 -3.626377838050092791e-15 -1.752383112674685478e-15 0.000000000000000000e+00 1.141399127857276414e-15 -4.395675216812365865e-15 0.000000000000000000e+00 4.105197165603961224e-16 -5.295252553158827582e-15 2.431999913011504207e-15 7.554858582308652635e-16 2.163417990702391027e-15 -7.105427357601001859e-15 -4.440892098500626162e-16 1.332267629550187849e-15 0.000000000000000000e+00 3.337506189975900268e-15 -4.470710766837796123e-15 0.000000000000000000e+00 1.206197210672230844e-15 -6.809265682517986714e-15 2.431999913011504207e-15 7.554858582308652635e-16 2.163417990702391027e-15 1.065814103640150279e-14 -2.220446049250313081e-15 -3.552713678800500929e-15 0.000000000000000000e+00 1.344622951702595146e-15 -4.477141592995760546e-15 0.000000000000000000e+00 -1.032684235385055705e-15 -4.228924603342112621e-15
7.504422193000503967e+02 -5.380301319350166978e-02 2.007900324633187239e+00 7.625650239889729676e-01 -1.147574930978308316e+00 4.604449487996760126e+00 -6.251358278915606803e+00 -5.688415059808512808e+00 -6.675949332285235016e+00 1.876731781177385372e+00 -6.272360598576725010e-01 -1.619130997176899456e+00 9.980812545358119792e-02 2.122574814117989206e+00 6.332867992300137416e-01 -3.660887000129378066e-01 -5.147201799760814822e+00 -9.446663356888507224e-01 2.499786358080387516e-01 -1.506623136419108278e+00 -5.158500116327395801e-01 1.282553442929536658e+00 1.981067447253893832e+00 3.441946988286913589e-01 6.382430688865170509e-02 3.633029082594893211e+00 3.018091853937570512e+00 8.468757465425680309e-02 7.972961412283736671e-01 5.595198339573099755e-01 6.800388872784424166e-02 2.126035375004482475e+00 1.011122908664729536e+00 -1.211250293316890603e-01 -9.597559517074186197e-02 -4.278376040590124441e-01 1.089860493337761610e-01 -8.617119790936483836e-02 -3.776052438306720660e+00 -1.922993019222392963e+00 -3.026640030902080003e+00 -5.991851429832385278e+00 2.562762189280324954e+00 2.602140792307387152e+00 1.363688453598581818e+00 -5.171856064370672357e-02 4.709140753449217343e+00 2.685784528198744425e+01 -2.187023601983327126e+00 -1.360927783727911944e+01 6.250870940119600760e+01 5.117185625309028651e+00 -5.693297852533660830e+00 -2.874320498539573165e-01 1.065814103640150279e-14 0.000000000000000000e+00 -1.421085471520200372e-14 2.480172426717022207e-15 -2.184976194335334351e-15 0.000000000000000000e+00 3.396932596104958343e-15 1.879515121029704391e-15 0.000000000000000000e+00 1.877488907682747383e-15 2.341946054401495612e-15 1.329658431788544968e-15 -1.065814103640150279e-14 -3.330669073875469621e-16 0.000000000000000000e+00 0.000000000000000000e+00 -5.128388989310860461e-15 -1.019626249021828658e-14 0.000000000000000000e+00 -4.970285310562382693e-15 -6.751170285023131332e-15 1.877488907682747383e-15 2.341946054401495612e-15 1.329658431788544968e-15 0.000000000000000000e+00 6.200138462563799607e-15 1.675808262397384014e-15 0.000000000000000000e+00 -1.512547724611221450e-15 3.154569170138084237e-15 0.000000000000000000e+00 -5.254844049536852732e-15 -7.911370301504157921e-15 1.877488907682747383e-15 2.341946054401495612e-15 1.329658431788544968e-15 7.105427357601001859e-15 -4.440892098500626162e-16 -1.332267629550187849e-15 0.000000000000000000e+00 -1.949077338220321314e-16 -3.341346710129087179e-15 0.000000000000000000e+00 -7.754499221814189402e-16 -1.250701506430154645e-15 1.877488907682747383e-15 2.341946054401495612e-15 1.329658431788544968e-15 -1.065814103640150279e-14 -2.220446049250313081e-15 3.552713678800500929e-15 0.000000000000000000e+00 5.216187811217479468e-15 1.075698030682035793e-14 0.000000000000000000e+00 -1.665658282151142679e-15 6.147620674143337457e-15 -5.999451377361871174e+00 2.601926741594814629e+00 -4.683545442093492994e+00 -2.948513600892379571e-01 7.083180642625482193e+00 5.395974198321695781e+00 3.258493936765897558e+01 -2.062203945069994404e+01 7.474074550050234222e+01 1.641545913746156771e+01 3.204415653892551319e+01 2.699090625591752968e+01 -1.065814103640150279e-14 0.000000000000000000e+00 1.421085471520200372e-14 -1.836927572226492947e-15 -4.343645382521164281e-15 0.000000000000000000e+00 -1.302040217995298460e-15 1.725146474722539359e-15 0.000000000000000000e+00 2.440542605870417228e-15 8.796035451332635423e-16 2.195753098840186392e-15 1.065814103640150279e-14 -3.330669073875469621e-16 0.000000000000000000e+00 0.000000000000000000e+00 -1.516152838305638671e-15 -3.259039698809724320e-15 0.000000000000000000e+00 -1.292580140249221046e-15 3.285921699644807534e-15 2.440542605870417228e-15 8.796035451332635423e-16 2.195753098840186392e-15 0.000000000000000000e+00 -3.663146434854190328e-15 -1.759429891297993208e-15 0.000000000000000000e+00 1.197972726091880051e-15 -4.432705596513940241e-15 0.000000000000000000e+00 5.003747658076519797e-16 -5.304648330566153865e-15 2.440542605870417228e-15 8.796035451332635423e-16 2.195753098840186392e-15 -7.105427357601001859e-15 -4.440892098500626162e-16 1.332267629550187849e-15 0.000000000000000000e+00 3.302535301074792490e-15 -4.523078107724874339e-15 0.000000000000000000e+00 1.239124356771634581e-15 -6.912588606143495723e-15 2.440542605870417228e-15 8.796035451332635423e-16 2.195753098840186392e-15 1.065814103640150279e-14 -2.220446049250313081e-15 -3.552713678800500929e-15 0.000000000000000000e+00 1.340788111185454006e-15 -4.512441581977235808e-15 0.000000000000000000e+00 -1.083085008922460697e-15 -4.232597405154319990e-15
7.504266329678761167e+02 -5.624036590019443338e-02 2.029753431688273935e+00 7.477168751951239756e-01 -1.161820313872581778e+00 4.543183204514491536e+00 -6.171157048913139320e+00 -5.700515577577448312e+00 -6.598366334526211574e+00 1.860672687337645570e+00 -6.413101686529714129e-01 -1.594720491635861492e+00 1.148611326323010218e-01 2.136920913134616296e+00 6.524444590342106665e-01 -3.352851581635576395e-01 -5.141126227920075564e+00 -9.095963174294965370e-01 2.354976777701013324e-01 -1.478645176798004002e+00 -4.893069464032819837e-01 1.288530729601077951e+00 1.960064576385731616e+00 3.602742812530822514e-01 8.442972737002030215e-02 3.638874080834331615e+00 2.948904669815957114e+00 8.838428106803153383e-02 7.954772737737205723e-01 5.416399093807990894e-01 7.412661164891165555e-02 2.120963496630613676e+00 9.820625632755595191e-01 -1.245231195320388728e-01 -9.783535277073639180e-02 -4.209270936597643287e-01 1.070043537593866334e-01 -8.840792669923822067e-02 -3.793240303074647102e+00 -1.984316320044709148e+00 -3.069457179956006421e+00 -5.847917984256608470e+00 2.568838475731318738e+00 2.612857971474404462e+00 1.352210982150237051e+00 1.709903490126691850e-01 4.746263414711099138e+00 2.667450575206958518e+01 -1.884466601583820733e+00 -1.355566149395328068e+01 6.385228725626072332e+01 5.021715277686269019e+00 -5.700813794636401255e+00 -2.638981763847008111e-01 1.065814103640150279e-14 0.000000000000000000e+00 -1.421085471520200372e-14 2.594218575218073535e-15 -2.239114877521437415e-15 0.000000000000000000e+00 3.272723029101400955e-15 1.856902562126480861e-15 0.000000000000000000e+00 1.799277635987656569e-15 2.345531413892517598e-15 1.348655471345838647e-15 -1.065814103640150279e-14 -3.330669073875469621e-16 0.000000000000000000e+00 0.000000000000000000e+00 -5.179222454553943460e-15 -1.030765689996634375e-14 0.000000000000000000e+00 -4.947497778285147771e-15 -6.803203311932510409e-15 1.799277635987656569e-15 2.345531413892517598e-15 1.348655471345838647e-15 0.000000000000000000e+00 6.235375711556690726e-15 1.611568762286888931e-15 0.000000000000000000e+00 -1.447016468445812117e-15 3.172512731282072772e-15 0.000000000000000000e+00 -5.324920491282208665e-15 -7.965018916380379972e-15 1.799277635987656569e-15 2.345531413892517598e-15 1.348655471345838647e-15 7.105427357601001859e-15 -4.440892098500626162e-16 -1.332267629550187849e-15 0.000000000000000000e+00 -1.866074157598862030e-16 -3.285650759743552280e-15 0.000000000000000000e+00 -7.345438529203889038e-16 -1.193727988618662292e-15 1.799277635987656569e-15 2.345531413892517598e-15 1.348655471345838647e-15 -1.065814103640150279e-14 -2.220446049250313081e-15 3.552713678800500929e-15 0.000000000000000000e+00 5.215606234758241988e-15 1.085008922980826628e-14 0.000000000000000000e+00 -1.657675120199630757e-15 6.086841077084018975e-15 -6.019247740900129706e+00 2.600723761317626170e+00 -4.717297078404254052e+00 -6.577934852559863543e-02 7.128199763539988965e+00 5.187005702447464728e+00 3.228921746860812902e+01 -2.029713767675703195e+01 7.448943843606667770e+01 1.616706602930026193e+01 3.204251700173225004e+01 2.701797132699966397e+01 -1.065814103640150279e-14 0.000000000000000000e+00 1.421085471520200372e-14 -1.880887152694689886e-15 -4.326735568114417120e-15 0.000000000000000000e+00 -1.378420398285626921e-15 1.763596875405090204e-15 0.000000000000000000e+00 2.451059802090111888e-15 1.005974448703845171e-15 2.225628951057030649e-15 1.065814103640150279e-14 -3.330669073875469621e-16 0.000000000000000000e+00 0.000000000000000000e+00 -1.546459287669948267e-15 -3.265634310770703485e-15 0.000000000000000000e+00 -1.316014714945855742e-15 3.316071251498014550e-15 2.451059802090111888e-15 1.005974448703845171e-15 2.225628951057030649e-15 0.000000000000000000e+00 -3.696109954981703189e-15 -1.772353106679264705e-15 0.000000000000000000e+00 1.253762657097814650e-15 -4.470782552414844417e-15 0.000000000000000000e+00 5.907332408751372862e-16 -5.317989002359468416e-15 2.451059802090111888e-15 1.005974448703845171e-15 2.225628951057030649e-15 -7.105427357601001859e-15 -4.440892098500626162e-16 1.332267629550187849e-15 0.000000000000000000e+00 3.267530934124621462e-15 -4.578187404371962612e-15 0.000000000000000000e+00 1.269713423136241615e-15 -7.019842027531358921e-15 2.451059802090111888e-15 1.005974448703845171e-15 2.225628951057030649e-15 1.065814103640150279e-14 -2.220446049250313081e-15 -3.552713678800500929e-15 0.000000000000000000e+00 1.339503000630692347e-15 -4.550457463115747996e-15 0.000000000000000000e+00 -1.133605431038835079e-15 -4.232460721437624865e-15
